<svg width="238" height="132" viewBox="0 0 238 132" fill="none" xmlns="http://www.w3.org/2000/svg">
<path d="M70.6026 128.313L71.5266 3.67453C71.5384 2.08991 73.3005 1.14769 74.6249 2.0179L170.264 64.861C171.475 65.6567 171.464 67.436 170.244 68.217L73.6806 130.013C72.3437 130.868 70.5908 129.9 70.6026 128.313Z" fill="#1D2452"/>
<path d="M0.328125 82.709V48.666H25.6211V56.459H8.12109V61.791H25.6211V69.584H8.12109V82.709H0.328125ZM27.6719 82.709V48.666H35.4648V82.709H27.6719ZM41.0703 82.709L39.2246 81L37.5156 79.1543V52.2891L39.2246 50.5117L41.0703 48.666H62.8086V56.459H45.582L45.4453 56.5957L45.3086 56.7324V74.7109L45.4453 74.7793L45.5137 74.916H54.7422L54.8789 74.7793L55.0156 74.6426V69.9258L54.8105 69.7891L54.6738 69.584H47.4961V61.791H59.1855L61.0312 63.5684L62.8086 65.4141V79.1543L60.9629 81L59.1855 82.709H41.0703ZM64.8594 82.709V48.666H72.6523V61.791H82.3594V48.666H90.1523V82.709H82.3594V69.584H72.6523V82.709H64.8594ZM100.953 82.709V56.459H92.2031V48.666H117.496V56.459H108.746V82.709H100.953Z" fill="white"/>
<path d="M145.523 61.791L145.66 61.6543L145.797 61.5176V56.8008L145.592 56.6641L145.455 56.459H136.09V61.791H145.523ZM128.297 82.709V48.666H149.967L151.812 50.4434L153.59 52.2891V66.0293L151.744 67.875L149.967 69.584H136.09V82.709H128.297ZM155.641 82.709V48.666H163.434V74.916H180.934V82.709H155.641ZM200.484 61.791V56.8008L200.279 56.6641L200.143 56.459H191.051L190.914 56.5957L190.777 56.7324V61.791H200.484ZM182.984 82.709V52.2891L184.693 50.5117L186.539 48.666H204.654L206.5 50.4434L208.277 52.2891V82.709H200.484V69.584H190.777V82.709H182.984ZM227.896 68.2852V82.709H220.104V68.2852L210.328 48.666H219.01L224 58.5781L228.99 48.666H237.672L227.896 68.2852Z" fill="#E51C44"/>
</svg>
